<svg width="264" height="32" viewBox="0 0 264 32" fill="none" xmlns="http://www.w3.org/2000/svg">
<g clip-path="url(#clip0_10472_7)">
<path d="M172.953 15.0183C172.925 11.5274 175.534 9.82908 175.653 9.75001C174.175 7.36389 171.885 7.03787 171.08 7.01187C169.157 6.78766 167.291 8.28671 166.311 8.28671C165.312 8.28671 163.803 7.03353 162.176 7.07036C160.084 7.1061 158.126 8.4481 157.052 10.532C154.836 14.7811 156.489 21.0254 158.612 24.46C159.674 26.1431 160.915 28.0202 162.539 27.9541C164.128 27.8826 164.722 26.8331 166.64 26.8331C168.54 26.8331 169.097 27.9541 170.754 27.9119C172.459 27.8826 173.533 26.2222 174.558 24.5249C175.785 22.5981 176.278 20.6983 176.297 20.6008C176.258 20.5856 172.986 19.2014 172.953 15.0183Z" fill="white"/>
<path d="M169.91 5.0648C170.77 3.89781 171.359 2.31014 171.196 0.698975C169.951 0.758766 168.393 1.63321 167.497 2.77459C166.703 3.78036 165.995 5.42889 166.178 6.97919C167.576 7.09237 169.013 6.21365 169.91 5.0648Z" fill="white"/>
<path d="M196.053 27.3532H193.812L192.584 23.1833H188.318L187.149 27.3532H184.967L189.195 13.1571H191.806L196.053 27.3532ZM192.214 21.4339L191.104 17.727C190.987 17.3483 190.766 16.4565 190.442 15.0527H190.403C190.273 15.6565 190.064 16.5482 189.779 17.727L188.688 21.4339H192.214Z" fill="white"/>
<path d="M206.904 22.109C206.904 23.8499 206.467 25.226 205.592 26.2362C204.808 27.1355 203.834 27.5846 202.673 27.5846C201.419 27.5846 200.517 27.1013 199.97 26.1327V31.5037H197.866V20.4812C197.866 19.3878 197.839 18.2667 197.788 17.1167H199.638L199.756 18.7392H199.795C200.497 17.5168 201.561 16.9055 202.99 16.9055C204.107 16.9055 205.039 17.3823 205.785 18.3371C206.53 19.2939 206.904 20.5505 206.904 22.109ZM204.761 22.1922C204.761 21.1959 204.554 20.3745 204.137 19.727C203.683 19.0539 203.072 18.7168 202.306 18.7168C201.787 18.7168 201.316 18.9046 200.894 19.2747C200.472 19.6481 200.196 20.1356 200.066 20.7394C200.001 21.021 199.969 21.2503 199.969 21.4317V23.1395C199.969 23.883 200.18 24.5113 200.602 25.0255C201.024 25.5375 201.573 25.7946 202.248 25.7946C203.04 25.7946 203.657 25.4628 204.098 24.8047C204.54 24.1444 204.761 23.2739 204.761 22.1922Z" fill="white"/>
<path d="M217.794 22.109C217.794 23.8499 217.357 25.226 216.482 26.2362C215.697 27.1355 214.724 27.5846 213.562 27.5846C212.308 27.5846 211.406 27.1013 210.859 26.1327V31.5037H208.755V20.4812C208.755 19.3878 208.728 18.2667 208.677 17.1167H210.527L210.644 18.7392H210.684C211.384 17.5168 212.449 16.9055 213.879 16.9055C214.995 16.9055 215.927 17.3823 216.675 18.3371C217.419 19.2939 217.794 20.5505 217.794 22.109ZM215.65 22.1922C215.65 21.1959 215.442 20.3745 215.025 19.727C214.57 19.0539 213.962 18.7168 213.196 18.7168C212.677 18.7168 212.205 18.9046 211.782 19.2747C211.36 19.6481 211.085 20.1356 210.955 20.7394C210.891 21.021 210.857 21.2503 210.857 21.4317V23.1395C210.857 23.883 211.069 24.5113 211.489 25.0255C211.911 25.5364 212.46 25.7946 213.137 25.7946C213.93 25.7946 214.547 25.4628 214.987 24.8047C215.429 24.1444 215.65 23.2739 215.65 22.1922Z" fill="white"/>
<path d="M229.969 23.371C229.969 24.5796 229.579 25.5621 228.802 26.3205C227.948 27.1483 226.755 27.5633 225.226 27.5633C223.813 27.5633 222.68 27.2688 221.825 26.6789L222.312 24.7834C223.234 25.3743 224.248 25.6687 225.351 25.6687C226.144 25.6687 226.761 25.4746 227.201 25.0895C227.642 24.7034 227.865 24.1871 227.865 23.5427C227.865 22.9656 227.68 22.4824 227.318 22.0888C226.954 21.6962 226.352 21.3303 225.507 20.9943C223.208 20.0673 222.057 18.7115 222.057 16.9279C222.057 15.7631 222.464 14.8094 223.275 14.0638C224.086 13.3192 225.161 12.9469 226.499 12.9469C227.694 12.9469 228.69 13.172 229.48 13.6211L228.952 15.4751C228.208 15.0398 227.369 14.8222 226.429 14.8222C225.687 14.8222 225.105 15.0196 224.689 15.4121C224.339 15.7631 224.161 16.1908 224.161 16.6986C224.161 17.2586 224.363 17.7237 224.766 18.0885C225.115 18.4246 225.752 18.7905 226.674 19.183C227.805 19.6758 228.635 20.2497 229.167 20.909C229.703 21.5682 229.969 22.3907 229.969 23.371Z" fill="white"/>
<path d="M236.942 18.8235H234.624V23.7935C234.624 25.0575 235.032 25.688 235.851 25.688C236.227 25.688 236.539 25.6538 236.785 25.5824L236.844 27.3094C236.429 27.4769 235.884 27.5611 235.208 27.5611C234.377 27.5611 233.728 27.287 233.259 26.7387C232.792 26.1904 232.558 25.2719 232.558 23.9791V18.8193H231.176V17.1125H232.558V15.2383L234.624 14.5641V17.1125H236.942V18.8235Z" fill="white"/>
<path d="M247.383 22.1506C247.383 23.724 246.967 25.0159 246.136 26.0261C245.267 27.0661 244.11 27.5845 242.669 27.5845C241.278 27.5845 240.172 27.0864 239.347 26.0911C238.522 25.0937 238.11 23.8371 238.11 22.3213C238.11 20.7351 238.536 19.4358 239.385 18.4256C240.237 17.4143 241.383 16.9087 242.825 16.9087C244.214 16.9087 245.33 17.4079 246.175 18.4042C246.982 19.3707 247.383 20.6188 247.383 22.1506ZM245.203 22.2029C245.203 21.2652 245.015 20.4609 244.639 19.7878C244.198 18.975 243.567 18.5685 242.749 18.5685C241.906 18.5685 241.26 18.975 240.82 19.7878C240.443 20.4609 240.256 21.2791 240.256 22.2456C240.256 23.1843 240.443 23.9907 240.82 24.6617C241.275 25.4745 241.909 25.881 242.731 25.881C243.535 25.881 244.166 25.466 244.622 24.6414C245.008 23.9523 245.203 23.1427 245.203 22.2029Z" fill="white"/>
<path d="M254.224 19.1169C254.016 19.0753 253.793 19.0539 253.561 19.0539C252.821 19.0539 252.249 19.3547 251.846 19.9606C251.497 20.494 251.321 21.1682 251.321 21.9821V27.3531H249.218V20.3404C249.218 19.1617 249.197 18.0864 249.156 17.1178H250.989L251.066 19.0763H251.124C251.347 18.4032 251.696 17.8602 252.176 17.4538C252.644 17.0879 253.15 16.9055 253.696 16.9055C253.89 16.9055 254.066 16.9205 254.222 16.9471L254.224 19.1169Z" fill="white"/>
<path d="M263.632 21.7506C263.632 22.1581 263.607 22.5016 263.555 22.7822H257.244C257.268 23.7934 257.574 24.5679 258.16 25.1012C258.692 25.577 259.379 25.8159 260.224 25.8159C261.158 25.8159 262.011 25.6559 262.777 25.3327L263.107 26.9104C262.211 27.3328 261.153 27.543 259.933 27.543C258.465 27.543 257.312 27.0758 256.473 26.1434C255.637 25.21 255.217 23.9556 255.217 22.3843C255.217 20.8418 255.607 19.5564 256.388 18.5312C257.205 17.4368 258.309 16.8895 259.698 16.8895C261.062 16.8895 262.096 17.4368 262.797 18.5312C263.353 19.3985 263.632 20.4737 263.632 21.7506ZM261.626 21.1607C261.641 20.4855 261.503 19.9041 261.217 19.4123C260.853 18.7787 260.293 18.463 259.542 18.463C258.854 18.463 258.294 18.7712 257.868 19.3899C257.517 19.8817 257.309 20.4727 257.245 21.1586L261.626 21.1607Z" fill="white"/>
<path d="M191.477 7.79237H190.375L189.773 5.77851H187.679L187.104 7.79237H186.032L188.108 0.935181H189.39L191.477 7.79237ZM189.592 4.93355L189.047 3.14298C188.99 2.95953 188.884 2.53285 188.721 1.85143H188.702C188.635 2.14601 188.539 2.57374 188.395 3.14298L187.86 4.93355H189.592Z" fill="white"/>
<path d="M196.667 2.84839L194.907 7.79236H193.902L192.199 2.84839H193.309L194.103 5.46295C194.238 5.90011 194.352 6.31735 194.438 6.71362H194.466C194.543 6.35823 194.657 5.94099 194.8 5.46295L195.585 2.84839H196.667Z" fill="white"/>
<path d="M200.415 7.79237L200.338 7.22312H200.31C199.994 7.68124 199.535 7.90454 198.951 7.90454C198.119 7.90454 197.526 7.28392 197.526 6.44944C197.526 5.22917 198.521 4.59807 200.243 4.59807V4.50687C200.243 3.85585 199.917 3.52981 199.277 3.52981C198.817 3.52981 198.415 3.65247 198.062 3.89673L197.852 3.17443C198.283 2.88928 198.818 2.7467 199.45 2.7467C200.664 2.7467 201.278 3.42813 201.278 4.79202V6.61298C201.278 7.11199 201.297 7.49883 201.345 7.79341L200.415 7.79237ZM200.271 5.32981C199.123 5.32981 198.549 5.62545 198.549 6.32679C198.549 6.84571 198.846 7.09941 199.257 7.09941C199.783 7.09941 200.271 6.67274 200.271 6.09301V5.32981Z" fill="white"/>
<path d="M203.578 2.03384C203.234 2.03384 202.966 1.74869 202.966 1.37233C202.966 0.995979 203.243 0.721313 203.598 0.721313C203.952 0.721313 204.239 0.995979 204.229 1.37233C204.229 1.76965 203.962 2.03384 203.578 2.03384ZM204.114 7.79237H203.081V2.8484H204.114V7.79237Z" fill="white"/>
<path d="M206.983 7.79241H205.95V0.579834H206.983V7.79241Z" fill="white"/>
<path d="M211.373 7.79244L211.296 7.22319H211.268C210.952 7.68131 210.493 7.90461 209.91 7.90461C209.078 7.90461 208.484 7.28399 208.484 6.44951C208.484 5.22925 209.479 4.59814 211.201 4.59814V4.50694C211.201 3.85592 210.876 3.52989 210.235 3.52989C209.775 3.52989 209.373 3.65254 209.02 3.89681L208.809 3.17345C209.24 2.8883 209.775 2.74573 210.407 2.74573C211.622 2.74573 212.235 3.42715 212.235 4.79104V6.61201C212.235 7.11102 212.256 7.49785 212.301 7.79244H211.373ZM211.229 5.32989C210.081 5.32989 209.507 5.62552 209.507 6.32686C209.507 6.84579 209.804 7.09948 210.215 7.09948C210.741 7.09948 211.229 6.67281 211.229 6.09308V5.32989Z" fill="white"/>
<path d="M216.42 7.90459C215.761 7.90459 215.274 7.60895 214.958 7.02922H214.938L214.879 7.79241H213.998C214.027 7.39614 214.037 6.94745 214.037 6.45997V0.579834H215.071V3.5718H215.09C215.397 3.02247 215.893 2.7478 216.573 2.7478C217.693 2.7478 218.477 3.76574 218.477 5.25019C218.477 6.78496 217.606 7.90459 216.42 7.90459ZM216.21 3.61059C215.616 3.61059 215.072 4.15992 215.072 4.92311V5.78799C215.072 6.46941 215.561 7.02922 216.192 7.02922C216.966 7.02922 217.427 6.35828 217.427 5.29003C217.426 4.29305 216.947 3.61059 216.21 3.61059Z" fill="white"/>
<path d="M221.037 7.79241H220.005V0.579834H221.037V7.79241Z" fill="white"/>
<path d="M226.661 5.58467H223.56C223.58 6.52084 224.162 7.0492 225.024 7.0492C225.483 7.0492 225.904 6.96743 226.276 6.81542L226.437 7.57861C225.997 7.78199 225.481 7.88368 224.879 7.88368C223.424 7.88368 222.563 6.90663 222.563 5.39177C222.563 3.87587 223.444 2.73633 224.762 2.73633C225.948 2.73633 226.695 3.6725 226.695 5.08671C226.699 5.2796 226.69 5.45258 226.661 5.58467ZM225.714 4.80156C225.714 4.03837 225.35 3.49952 224.689 3.49952C224.096 3.49952 223.629 4.04885 223.56 4.80156H225.714Z" fill="white"/>
<path d="M232.922 7.90454C231.564 7.90454 230.684 6.8258 230.684 5.36126C230.684 3.83488 231.583 2.7467 233 2.7467C234.338 2.7467 235.239 3.77408 235.239 5.28054C235.239 6.8258 234.31 7.90454 232.922 7.90454ZM232.962 3.54973C232.215 3.54973 231.737 4.29196 231.737 5.32981C231.737 6.34775 232.225 7.08998 232.952 7.08998C233.678 7.08998 234.165 6.29638 234.165 5.30885C234.166 4.30244 233.688 3.54973 232.962 3.54973Z" fill="white"/>
<path d="M240.792 7.79244H239.76V4.95353C239.76 4.07922 239.445 3.64101 238.823 3.64101C238.211 3.64101 237.789 4.20082 237.789 4.85184V7.79244H236.757V4.26163C236.757 3.82447 236.746 3.35586 236.718 2.84742H237.627L237.675 3.61061H237.704C237.98 3.08224 238.546 2.74573 239.177 2.74573C240.151 2.74573 240.792 3.53932 240.792 4.83088V7.79244Z" fill="white"/>
<path d="M247.551 3.67249H246.415V6.07319C246.415 6.68438 246.615 6.98944 247.016 6.98944C247.198 6.98944 247.352 6.96848 247.475 6.93807L247.504 7.77255C247.303 7.85432 247.034 7.89521 246.702 7.89521C245.887 7.89521 245.401 7.41717 245.401 6.16545V3.67249H244.723V2.8485H245.401V1.94273L246.415 1.6167V2.84745H247.551V3.67249Z" fill="white"/>
<path d="M253.022 7.79241H251.988V4.97448C251.988 4.08968 251.673 3.64204 251.051 3.64204C250.515 3.64204 250.018 4.02887 250.018 4.81198V7.79241H248.984V0.579834H250.018V3.54978H250.038C250.363 3.01093 250.833 2.7457 251.435 2.7457C252.42 2.7457 253.022 3.55922 253.022 4.85182V7.79241Z" fill="white"/>
<path d="M258.301 5.58467H255.2C255.22 6.52084 255.802 7.0492 256.663 7.0492C257.124 7.0492 257.543 6.96743 257.916 6.81542L258.078 7.57861C257.638 7.78199 257.121 7.88368 256.518 7.88368C255.063 7.88368 254.203 6.90663 254.203 5.39177C254.203 3.87587 255.084 2.73633 256.402 2.73633C257.588 2.73633 258.335 3.6725 258.335 5.08671C258.339 5.2796 258.329 5.45258 258.301 5.58467ZM257.353 4.80156C257.353 4.03837 256.99 3.49952 256.33 3.49952C255.736 3.49952 255.268 4.04885 255.2 4.80156H257.353Z" fill="white"/>
</g>
<path d="M34.3316 6.32643C34.3316 7.1485 34.1024 7.8069 33.6509 8.29793C33.1317 8.88002 32.4556 9.17292 31.627 9.17292C30.8351 9.17292 30.1589 8.8751 29.6043 8.28808C29.0485 7.69245 28.7711 6.96145 28.7711 6.08646C28.7711 5.21147 29.0485 4.48047 29.6043 3.88976C30.1589 3.29782 30.8351 3 31.627 3C32.0212 3 32.3971 3.08738 32.7558 3.24982C33.1134 3.4135 33.4045 3.63501 33.6153 3.90822L33.1363 4.42755C32.7684 3.96113 32.2676 3.731 31.627 3.731C31.0494 3.731 30.5486 3.9476 30.1234 4.38448C29.7028 4.82259 29.492 5.38991 29.492 6.08646C29.492 6.783 29.7028 7.35525 30.1234 7.79336C30.5486 8.22532 31.0494 8.44684 31.627 8.44684C32.2401 8.44684 32.7558 8.22532 33.1627 7.78844C33.4308 7.49924 33.5832 7.10051 33.6234 6.59102H31.627V5.87971H34.2903C34.3224 6.03354 34.3316 6.18245 34.3316 6.32643Z" fill="white"/>
<path fill-rule="evenodd" clip-rule="evenodd" d="M31.627 3.3125C30.924 3.3125 30.3296 3.57268 29.8323 4.10343C29.3355 4.63139 29.0836 5.28423 29.0836 6.08646C29.0836 6.88807 29.3347 7.54085 29.8321 8.07417C30.3295 8.60028 30.9241 8.86042 31.627 8.86042C32.3725 8.86042 32.9617 8.60117 33.4176 8.08993L33.4208 8.08638C33.8082 7.66512 34.0191 7.08829 34.0191 6.32643C34.0191 6.28117 34.0181 6.2365 34.0157 6.19221H31.9395V6.27852H33.9614L33.9349 6.61555C33.891 7.17343 33.7208 7.64613 33.3918 8.00092C32.9242 8.50303 32.3244 8.75934 31.627 8.75934C30.959 8.75934 30.3798 8.49932 29.9007 8.01258L29.898 8.0098C29.413 7.50459 29.1795 6.85043 29.1795 6.08646C29.1795 5.32181 29.4134 4.67284 29.898 4.16806L29.8995 4.16652C30.3803 3.67249 30.9606 3.4185 31.627 3.4185C32.2246 3.4185 32.733 3.5989 33.1353 3.96772L33.1922 3.90602C33.039 3.76196 32.8501 3.63673 32.6263 3.53423C32.3052 3.38889 31.9733 3.3125 31.627 3.3125ZM29.3762 3.67608C29.9882 3.02295 30.7462 2.6875 31.627 2.6875C32.069 2.6875 32.4886 2.78577 32.8847 2.96515L32.8859 2.96567C33.282 3.14702 33.6162 3.3979 33.8627 3.71728L34.0239 3.92615L33.1177 4.9086L32.8909 4.62107C32.5878 4.23674 32.1811 4.0435 31.627 4.0435C31.1386 4.0435 30.7175 4.22246 30.3481 4.60166C29.992 4.973 29.8045 5.45845 29.8045 6.08646C29.8045 6.71479 29.9922 7.2047 30.3475 7.57554C30.7184 7.95178 31.1404 8.13434 31.627 8.13434C32.1557 8.13434 32.5877 7.94722 32.9337 7.57575C33.0863 7.41113 33.1995 7.19173 33.263 6.90352H31.3145V5.56721H34.5444L34.5963 5.8159C34.6342 5.99758 34.6441 6.16939 34.6441 6.32643C34.6441 7.2078 34.3971 7.94711 33.8825 8.5077C33.3004 9.15946 32.5378 9.48542 31.627 9.48542C30.7464 9.48542 29.9889 9.15016 29.3771 8.50271L29.3758 8.50129C28.7619 7.84347 28.4586 7.03447 28.4586 6.08646C28.4586 5.13871 28.7614 4.32954 29.3762 3.67608Z" fill="white"/>
<path d="M38.5564 3.8601H36.0546V5.73068H38.31V6.442H36.0546V8.31258H38.5564V9.03743H35.3464V3.13525H38.5564V3.8601Z" fill="white"/>
<path fill-rule="evenodd" clip-rule="evenodd" d="M35.0339 2.82275H38.8689V4.1726H36.3671V5.41818H38.6225V6.7545H36.3671V8.00008H38.8689V9.34993H35.0339V2.82275ZM35.6589 3.44775V8.72493H38.2439V8.62508H35.7421V6.1295H37.9975V6.04318H35.7421V3.5476H38.2439V3.44775H35.6589Z" fill="white"/>
<path d="M41.5391 9.03743H40.8308V3.8601H39.2963V3.13525H43.0747V3.8601H41.5391V9.03743Z" fill="white"/>
<path fill-rule="evenodd" clip-rule="evenodd" d="M38.9838 2.82275H43.3872V4.1726H41.8516V9.34993H40.5183V4.1726H38.9838V2.82275ZM39.6088 3.44775V3.5476H41.1433V8.72493H41.2266V3.5476H42.7622V3.44775H39.6088Z" fill="white"/>
<path d="M45.8091 9.03743V3.13525H46.5162V9.03743H45.8091Z" fill="white"/>
<path fill-rule="evenodd" clip-rule="evenodd" d="M45.4966 2.82275H46.8287V9.34993H45.4966V2.82275ZM46.1216 3.44775V8.72493H46.2037V3.44775H46.1216Z" fill="white"/>
<path d="M49.6501 9.03743H48.9476V3.8601H47.4074V3.13525H51.1904V3.8601H49.6501V9.03743Z" fill="white"/>
<path fill-rule="evenodd" clip-rule="evenodd" d="M47.0949 2.82275H51.5029V4.1726H49.9626V9.34993H48.6351V4.1726H47.0949V2.82275ZM47.7199 3.44775V3.5476H49.2601V8.72493H49.3376V3.5476H50.8779V3.44775H47.7199Z" fill="white"/>
<path d="M58.3439 8.27824C57.8018 8.8751 57.1302 9.17292 56.3292 9.17292C55.5235 9.17292 54.8519 8.8751 54.3099 8.27824C53.7689 7.6826 53.4996 6.9516 53.4996 6.08646C53.4996 5.22131 53.7689 4.49031 54.3099 3.89468C54.8519 3.29782 55.5235 3 56.3292 3C57.1256 3 57.7972 3.29782 58.3393 3.8996C58.8848 4.50016 59.1541 5.22624 59.1541 6.08646C59.1541 6.9516 58.8848 7.6826 58.3439 8.27824ZM54.8336 7.78352C55.2416 8.22532 55.7378 8.44684 56.3292 8.44684C56.9159 8.44684 57.4167 8.22532 57.8201 7.78352C58.227 7.34172 58.4332 6.77439 58.4332 6.08646C58.4332 5.39853 58.227 4.8312 57.8201 4.3894C57.4167 3.9476 56.9159 3.72608 56.3292 3.72608C55.7378 3.72608 55.2416 3.9476 54.8336 4.3894C54.4268 4.8312 54.2205 5.39853 54.2205 6.08646C54.2205 6.77439 54.4268 7.34172 54.8336 7.78352Z" fill="white"/>
<path fill-rule="evenodd" clip-rule="evenodd" d="M56.3292 3.3125C55.6118 3.3125 55.0242 3.57299 54.5412 4.10478L54.3099 3.89468L54.5412 4.10478C54.0569 4.63809 53.8121 5.29224 53.8121 6.08646C53.8121 6.88067 54.0569 7.53483 54.5412 8.06815C55.0242 8.59993 55.6118 8.86042 56.3292 8.86042C57.0416 8.86042 57.6294 8.60014 58.1125 8.06815C58.5968 7.53483 58.8416 6.88067 58.8416 6.08646C58.8416 5.2983 58.5976 4.64872 58.108 4.10972L58.1071 4.10875C57.6239 3.57236 57.0366 3.3125 56.3292 3.3125ZM54.0785 3.68458C54.6797 3.02264 55.4352 2.6875 56.3292 2.6875C57.2145 2.6875 57.9701 3.02312 58.5711 3.69C59.1722 4.352 59.4666 5.15441 59.4666 6.08646C59.4666 7.02253 59.1727 7.83038 58.5752 8.48833L58.5752 8.48833C57.9742 9.15006 57.2188 9.48542 56.3292 9.48542C55.4352 9.48542 54.6797 9.15027 54.0785 8.48833L54.0785 8.48833C53.481 7.83038 53.1871 7.02253 53.1871 6.08646C53.1871 5.15038 53.481 4.34254 54.0785 3.68459L54.0785 3.68458ZM54.604 4.17739C55.0695 3.67337 55.6481 3.41358 56.3292 3.41358C57.0047 3.41358 57.5887 3.67277 58.0505 4.1782C58.5174 4.68555 58.7457 5.33183 58.7457 6.08646C58.7457 6.84106 58.5174 7.48733 58.0505 7.99468C57.5888 8.50013 57.0047 8.75934 56.3292 8.75934C55.6481 8.75934 55.0695 8.49955 54.604 7.99553L54.6037 7.9952C54.1365 7.48778 53.908 6.84133 53.908 6.08646C53.908 5.33159 54.1365 4.68514 54.6037 4.17771L54.604 4.17739ZM55.0633 4.60127C54.717 4.97742 54.533 5.46557 54.533 6.08646C54.533 6.70739 54.717 7.19556 55.0634 7.57172C55.4139 7.95116 55.8276 8.13434 56.3292 8.13434C56.8269 8.13434 57.2443 7.95066 57.5894 7.5728L57.5902 7.57183C57.9366 7.19566 58.1207 6.70745 58.1207 6.08646C58.1207 5.46546 57.9366 4.97726 57.5902 4.60109L57.5894 4.60011C57.2443 4.22226 56.8269 4.03858 56.3292 4.03858C55.8275 4.03858 55.4138 4.22178 55.0633 4.60127Z" fill="white"/>
<path d="M60.1473 9.03743V3.13525H61.0069L63.6794 7.72556H63.7103L63.6794 6.59091V3.13525H64.3865V9.03743H63.6484L60.8498 4.22068H60.8189L60.8498 5.36026V9.03743H60.1473Z" fill="white"/>
<path fill-rule="evenodd" clip-rule="evenodd" d="M59.8348 2.82275H61.1865L63.3669 6.56772V2.82275H64.699V9.34993H63.4686L61.1623 5.38059V9.34993H59.8348V2.82275ZM60.4598 3.44775V8.72493H60.5373V5.3645L60.4978 3.90818H61.0297L63.8283 8.72493H64.074V3.44775H63.9919V6.58664L64.0314 8.03806H63.4997L60.8272 3.44775H60.4598Z" fill="white"/>
<path d="M53.3257 17.6569C51.1723 17.6569 49.4131 19.4167 49.4131 21.8447C49.4131 24.2531 51.1723 26.0314 53.3257 26.0314C55.4836 26.0314 57.2427 24.2531 57.2427 21.8447C57.2427 19.4167 55.4836 17.6569 53.3257 17.6569ZM53.3257 24.3823C52.1441 24.3823 51.1276 23.3351 51.1276 21.8447C51.1276 20.3347 52.1441 19.3059 53.3257 19.3059C54.5072 19.3059 55.5283 20.3347 55.5283 21.8447C55.5283 23.3351 54.5072 24.3823 53.3257 24.3823ZM44.789 17.6569C42.631 17.6569 40.8765 19.4167 40.8765 21.8447C40.8765 24.2531 42.631 26.0314 44.789 26.0314C46.9458 26.0314 48.7015 24.2531 48.7015 21.8447C48.7015 19.4167 46.9458 17.6569 44.789 17.6569ZM44.789 24.3823C43.6063 24.3823 42.5863 23.3351 42.5863 21.8447C42.5863 20.3347 43.6063 19.3059 44.789 19.3059C45.9705 19.3059 46.987 20.3347 46.987 21.8447C46.987 23.3351 45.9705 24.3823 44.789 24.3823ZM34.6307 18.9404V20.7199H38.5879C38.4721 21.7143 38.1627 22.4453 37.6882 22.9548C37.1106 23.5701 36.211 24.2531 34.6307 24.2531C32.1954 24.2531 30.2884 22.1426 30.2884 19.5274C30.2884 16.9123 32.1954 14.8018 34.6307 14.8018C35.9474 14.8018 36.9055 15.3543 37.6126 16.0706L38.7804 14.8165C37.7914 13.8025 36.4757 13.0235 34.6307 13.0235C31.2912 13.0235 28.4846 15.9413 28.4846 19.5274C28.4846 23.1135 31.2912 26.0314 34.6307 26.0314C36.4356 26.0314 37.7914 25.3964 38.8572 24.2051C39.9493 23.0323 40.2897 21.3832 40.2897 20.0517C40.2897 19.6382 40.2576 19.2579 40.2003 18.9404H34.6307ZM76.1692 20.32C75.8472 19.3835 74.8536 17.6569 72.8297 17.6569C70.8242 17.6569 69.1545 19.3539 69.1545 21.8447C69.1545 24.1903 70.807 26.0314 73.0223 26.0314C74.8135 26.0314 75.8472 24.8586 76.2724 24.1756L74.943 23.2243C74.4995 23.9208 73.8955 24.3823 73.0223 24.3823C72.1547 24.3823 71.5324 23.9553 71.1336 23.1135L76.3492 20.7962L76.1692 20.32ZM70.8517 21.7143C70.807 20.0997 72.0195 19.2727 72.8882 19.2727C73.5689 19.2727 74.1465 19.6382 74.3391 20.1612L70.8517 21.7143ZM66.6126 25.7767H68.327V13.4702L66.6126 13.4702V25.7767ZM63.8048 18.5897H63.7475C63.3625 18.0999 62.6279 17.6569 61.6973 17.6569C59.7445 17.6569 57.959 19.4979 57.959 21.8583C57.959 24.2051 59.7445 26.0314 61.6973 26.0314C62.6279 26.0314 63.3625 25.5847 63.7475 25.0801H63.8048V25.6807C63.8048 27.2817 63.0084 28.142 61.7237 28.142C60.6762 28.142 60.0264 27.3297 59.7583 26.6467L58.2673 27.315C58.697 28.425 59.835 29.791 61.7237 29.791C63.7338 29.791 65.4299 28.521 65.4299 25.4308V17.9116H63.8048V18.5897ZM61.844 24.3823C60.6625 24.3823 59.6735 23.3203 59.6735 21.8583C59.6735 20.3827 60.6625 19.3059 61.844 19.3059C63.0084 19.3059 63.9263 20.3827 63.9263 21.8583C63.9263 23.3203 63.0084 24.3823 61.844 24.3823ZM84.196 13.4702H80.0955V25.7767H81.8054V21.1137H84.196C86.0949 21.1137 87.9572 19.6382 87.9572 17.2914C87.9572 14.9457 86.0903 13.4702 84.196 13.4702ZM84.2407 19.4019H81.8054V15.182H84.2407C85.5173 15.182 86.2462 16.3204 86.2462 17.2914C86.2462 18.2439 85.5173 19.4019 84.2407 19.4019ZM94.8104 17.6335C93.575 17.6335 92.2903 18.2193 91.762 19.5176L93.2793 20.2006C93.6059 19.5176 94.2064 19.2961 94.8413 19.2961C95.7283 19.2961 96.628 19.8683 96.6417 20.8787V21.0079C96.3323 20.8159 95.6699 20.5316 94.8551 20.5316C93.2208 20.5316 91.5557 21.4977 91.5557 23.3006C91.5557 24.9497 92.8942 26.0117 94.399 26.0117C95.5496 26.0117 96.1845 25.4542 96.5833 24.8057H96.6417V25.757L98.2931 25.757V21.0362C98.2931 18.8543 96.7758 17.6335 94.8104 17.6335ZM94.6041 24.3774C94.0448 24.3774 93.2655 24.0796 93.2655 23.3351C93.2655 22.3825 94.2374 22.017 95.0785 22.017C95.8315 22.017 96.1845 22.1955 96.6417 22.4305C96.5076 23.5701 95.5943 24.3774 94.6041 24.3774ZM104.31 17.903L102.344 23.2378H102.286L100.254 17.903H98.41L101.463 25.3582L99.7211 29.5067H101.508L106.212 17.903H104.31ZM88.8969 25.7767H90.6114V13.4702H88.8969V25.7767Z" fill="white"/>
<path d="M0.425173 3.66314C0.155859 3.96588 0 4.43722 0 5.04762L0 26.8202C0 27.4306 0.155859 27.9019 0.425173 28.2047L0.491642 28.2711L11.8533 16.0754V15.7875L0.491642 3.59176L0.425173 3.66314Z" fill="url(#paint0_linear_10472_7)"/>
<path d="M15.6363 20.1426L11.8533 16.0753V15.7873L15.6409 11.72L15.7257 11.773L20.2112 14.5136C21.4913 15.2914 21.4913 16.5712 20.2112 17.3539L15.7257 20.0897L15.6363 20.1426Z" fill="url(#paint1_linear_10472_7)"/>
<path d="M15.7265 20.0897L11.8541 15.9313L0.426025 28.2045C0.851198 28.6845 1.54454 28.7423 2.333 28.2624L15.7265 20.0897Z" fill="url(#paint2_linear_10472_7)"/>
<path d="M15.7265 11.7733L2.333 3.60058C1.54454 3.12555 0.851198 3.18339 0.426025 3.66334L11.8541 15.9316L15.7265 11.7733Z" fill="url(#paint3_linear_10472_7)"/>
<defs>
<linearGradient id="paint0_linear_10472_7" x1="7.32719" y1="27.0469" x2="-3.34892" y2="17.7607" gradientUnits="userSpaceOnUse">
<stop stop-color="#00A0FF"/>
<stop offset="0.0066" stop-color="#00A1FF"/>
<stop offset="0.2601" stop-color="#00BEFF"/>
<stop offset="0.5122" stop-color="#00D2FF"/>
<stop offset="0.7604" stop-color="#00DFFF"/>
<stop offset="1" stop-color="#00E3FF"/>
</linearGradient>
<linearGradient id="paint1_linear_10472_7" x1="21.8781" y1="15.9299" x2="-0.305984" y2="15.9299" gradientUnits="userSpaceOnUse">
<stop stop-color="#FFE000"/>
<stop offset="0.4087" stop-color="#FFBD00"/>
<stop offset="0.7754" stop-color="#FFA500"/>
<stop offset="1" stop-color="#FF9C00"/>
</linearGradient>
<linearGradient id="paint2_linear_10472_7" x1="13.6208" y1="17.4956" x2="-4.41347" y2="1.80913" gradientUnits="userSpaceOnUse">
<stop stop-color="#FF3A44"/>
<stop offset="1" stop-color="#C31162"/>
</linearGradient>
<linearGradient id="paint3_linear_10472_7" x1="-2.45066" y1="23.9335" x2="5.60065" y2="16.9304" gradientUnits="userSpaceOnUse">
<stop stop-color="#32A071"/>
<stop offset="0.0685" stop-color="#2DA771"/>
<stop offset="0.4762" stop-color="#15CF74"/>
<stop offset="0.8009" stop-color="#06E775"/>
<stop offset="1" stop-color="#00F076"/>
</linearGradient>
<clipPath id="clip0_10472_7">
<rect width="108" height="32" fill="white" transform="translate(156)"/>
</clipPath>
</defs>
</svg>
